<svg version="1.1" xmlns="http://www.w3.org/2000/svg" xmlns:xlink="http://www.w3.org/1999/xlink" width="1170" height="810" viewBox="0,0,1170,810"><defs></defs><g transform="translate(87.5,132.5)"><path fill="none" stroke="#000000" paint-order="fill stroke markers" d=" M 535 355 C 404 207 486 172 542 86 C 598 0 507 144 366 203 C 225 262 353 281 491 226 C 629 171 366 302 487 359 M 535 405 C 404 257 486 222 542 136 C 598 50 507 194 366 253 C 225 312 353 331 491 276 C 629 221 366 352 487 409 M 535 455 C 404 307 486 272 542 186 C 598 100 507 244 366 303 C 225 362 353 381 491 326 C 629 271 366 402 487 459 M 585 355 C 454 207 536 172 592 86 C 648 0 557 144 416 203 C 275 262 403 281 541 226 C 679 171 416 302 537 359 M 585 405 C 454 257 536 222 592 136 C 648 50 557 194 416 253 C 275 312 403 331 541 276 C 679 221 416 352 537 409 M 585 455 C 454 307 536 272 592 186 C 648 100 557 244 416 303 C 275 362 403 381 541 326 C 679 271 416 402 537 459 M 635 355 C 504 207 586 172 642 86 C 698 0 607 144 466 203 C 325 262 453 281 591 226 C 729 171 466 302 587 359 M 635 405 C 504 257 586 222 642 136 C 698 50 607 194 466 253 C 325 312 453 331 591 276 C 729 221 466 352 587 409 M 635 455 C 504 307 586 272 642 186 C 698 100 607 244 466 303 C 325 362 453 381 591 326 C 729 271 466 402 587 459" stroke-linecap="round" stroke-linejoin="round" stroke-miterlimit="10" stroke-width="6" stroke-dasharray=""></path></g></svg>